<svg version="1.1" id="Layer_1" xmlns="http://www.w3.org/2000/svg" xmlns:xlink="http://www.w3.org/1999/xlink" x="0px" y="0px"
	 width="100%" viewBox="0 0 500 500" enable-background="new 0 0 500 500" xml:space="preserve">
<path fill="#000000" opacity="1.000000" stroke="none" 
	d="
M277.000000,501.000000 
	C186.000015,501.000000 95.500015,500.975189 5.000193,501.095795 
	C1.576119,501.100342 0.903036,500.423828 0.905301,497.000000 
	C1.013778,333.000092 1.013756,169.000122 0.905337,5.000247 
	C0.903074,1.576946 1.575794,0.903021 4.999876,0.905286 
	C168.999756,1.013775 332.999725,1.013761 496.999634,0.905353 
	C500.422668,0.903091 501.096985,1.575430 501.094727,4.999757 
	C500.986206,168.999634 500.986237,332.999603 501.094604,496.999512 
	C501.096893,500.422272 500.425629,501.102325 497.000275,501.096375 
	C423.833679,500.969360 350.666809,501.000000 277.000000,501.000000 
z"/>
<path fill="#5CE1E6" opacity="1.000000" stroke="none" 
	d="
M63.323719,282.313843 
	C57.728523,278.076172 51.571728,275.458923 46.384613,271.117554 
	C37.123634,263.366608 29.547899,254.602676 23.839211,243.864609 
	C17.520285,231.978729 12.787177,219.581055 9.028963,206.737488 
	C8.849795,206.125198 9.010922,205.413330 9.103458,204.336426 
	C7.950387,194.850113 6.612356,185.779419 8.016564,176.172516 
	C7.632242,169.994217 9.777527,164.838791 12.033455,159.321625 
	C14.599311,157.397568 14.492192,154.512192 15.876638,152.014893 
	C16.056314,151.716064 15.994784,151.486542 16.063660,151.389725 
	C16.233183,150.935150 16.406006,150.616547 16.816675,150.116959 
	C16.982380,149.896851 16.968410,149.988297 16.922853,149.980316 
	C18.376747,148.835281 19.441195,147.434464 19.769203,145.190643 
	C19.939402,144.897385 19.975716,144.960175 19.943718,144.977234 
	C20.200165,144.785736 20.456110,144.542526 20.847595,144.059875 
	C21.666410,143.060883 22.321781,142.271576 23.099335,141.193909 
	C23.792170,140.526566 24.272463,140.058945 24.814747,139.187271 
	C25.000183,138.904297 25.002016,138.997910 24.955210,138.998840 
	C25.804739,138.369949 26.159821,137.375763 26.782291,136.187332 
	C26.942289,135.920807 26.981424,135.983765 26.945848,135.973358 
	C27.189278,135.777298 27.445065,135.564102 27.819019,135.114594 
	C27.964251,134.910339 27.976976,134.977707 27.942909,134.973846 
	C28.188828,134.780670 28.444687,134.563004 28.826164,134.113373 
	C28.975883,133.909729 28.977093,133.978043 28.945206,133.965790 
	C30.517265,133.176346 32.041958,132.315216 32.789604,130.169357 
	C32.957287,129.885574 32.970657,129.974762 32.925873,129.980057 
	C33.170155,129.782639 33.450901,129.569031 33.963333,129.234009 
	C34.204613,129.125153 34.470161,128.980408 34.619682,129.002991 
	C35.082535,128.821182 35.377422,128.592819 35.836197,128.128876 
	C36.016075,127.914101 36.011715,128.014740 35.961372,128.013245 
	C36.182949,127.797699 36.438946,127.566048 36.842674,127.115723 
	C37.006355,126.914658 36.995838,127.004791 36.950768,126.999573 
	C37.184689,126.790421 37.443329,126.563301 37.839886,126.108376 
	C37.998150,125.903740 37.991306,125.985901 37.950279,125.981888 
	C38.392704,125.607201 38.982101,125.511299 39.757462,125.142288 
	C39.953327,124.594780 40.086685,124.326546 40.597256,124.080902 
	C41.112236,123.811836 41.389553,123.582268 41.819763,123.125000 
	C41.982872,122.909653 41.981724,122.978249 41.948364,122.970261 
	C42.214241,122.736435 42.513847,122.511078 43.083313,122.206009 
	C43.352818,122.125816 43.507786,121.985886 43.607571,122.016571 
	C44.037788,121.847809 44.346348,121.618637 44.817230,121.138794 
	C44.998535,120.913895 44.973560,120.980141 44.941429,120.965286 
	C45.408356,120.589348 46.016571,120.513184 46.790710,120.101631 
	C55.085728,113.915596 64.182877,109.909500 73.354782,105.956779 
	C85.506195,100.720001 98.062538,96.763992 110.871933,93.650070 
	C122.390160,90.850029 134.037384,88.621010 145.795166,86.955009 
	C154.526962,85.717766 163.344086,85.116066 172.024139,83.787842 
	C178.707520,82.765144 185.518188,84.161148 192.451263,82.112762 
	C198.042053,82.888039 203.245300,82.314682 208.900040,82.500504 
	C219.522980,82.500580 229.678223,82.500526 240.309204,82.500504 
	C243.951660,82.529060 247.119049,82.439522 250.703552,82.778648 
	C255.868698,84.890594 260.622864,83.751259 265.740448,83.130966 
	C270.343964,85.798042 275.037048,83.866310 279.824310,84.800285 
	C288.658691,85.752861 297.161224,86.659325 305.552917,87.689049 
	C320.739014,89.552483 335.718262,93.207054 350.727356,96.381203 
	C371.091858,100.687904 390.875122,107.095352 409.471069,116.337296 
	C422.165619,122.646339 434.651031,129.654129 445.952026,138.445999 
	C449.662079,141.332352 453.507538,144.044601 457.594757,147.001587 
	C458.726776,147.774368 459.650391,148.209152 460.843506,148.789490 
	C461.112000,148.936920 461.045868,148.979355 461.025574,148.945709 
	C461.211426,149.187149 461.437592,149.444504 461.890198,149.839264 
	C462.093628,149.997070 462.002594,149.998657 462.001923,149.953156 
	C462.210785,150.186569 462.440491,150.447586 462.903015,150.844147 
	C463.112213,151.000626 462.999573,150.971207 463.014771,150.915009 
	C463.608063,151.822739 464.632721,152.149261 465.823273,152.782852 
	C466.094299,152.939850 466.036774,152.977570 466.027771,152.944382 
	C466.215057,153.188110 466.436401,153.443283 466.885681,153.829529 
	C467.088593,153.982285 467.016602,153.983734 467.016754,153.947739 
	C467.214447,154.189255 467.438293,154.443832 467.888489,154.831909 
	C468.092163,154.985107 468.013336,154.992142 468.010376,154.952698 
	C468.212006,155.188599 468.438507,155.444626 468.889740,155.838776 
	C469.092743,155.996155 469.007111,155.990707 469.010254,155.947922 
	C469.212311,156.173676 469.419647,156.435547 469.735535,156.920898 
	C472.180939,159.561981 474.524994,161.973877 476.982361,164.705872 
	C477.243378,165.195312 477.391144,165.364655 477.798340,165.749252 
	C478.400818,165.936127 478.671021,166.062943 478.918121,166.572449 
	C480.960968,170.465759 483.531219,173.783386 485.636414,177.785767 
	C488.167328,181.779419 489.740417,185.819138 490.977539,190.366150 
	C492.186005,194.604401 492.537262,198.666000 493.737335,202.950806 
	C493.882324,203.331512 494.031067,203.449097 493.973328,203.524292 
	C494.539917,208.078766 495.200439,212.553787 495.511292,217.529205 
	C497.010345,227.728577 496.779327,237.465485 495.262512,247.620377 
	C494.512024,251.341064 494.134949,254.701645 491.920227,257.888763 
	C490.389801,259.740479 489.676422,261.532928 489.223633,263.800720 
	C489.052338,264.079132 489.023987,264.016541 489.058197,264.019653 
	C488.136597,264.707458 487.748993,265.772278 487.097656,267.061157 
	C486.938782,267.355316 487.032562,267.513885 486.963165,267.574463 
	C486.800232,268.007690 486.628845,268.340240 486.208496,268.860107 
	C486.037445,269.087616 486.024109,269.020142 486.058472,269.021729 
	C485.812073,269.217560 485.554291,269.438629 485.165833,269.890503 
	C485.012177,270.094513 485.027954,270.011810 485.069092,270.020630 
	C483.890320,270.955139 482.961426,272.107086 482.215546,273.805969 
	C482.044891,274.078003 482.018402,274.016144 482.051910,274.013123 
	C481.787506,274.225861 481.524109,274.478119 481.121368,274.978424 
	C480.507843,275.759094 480.063629,276.323395 479.352020,276.955994 
	C478.571564,277.414551 478.512146,278.018585 478.202881,278.828796 
	C478.052246,279.081787 478.022827,279.017761 478.057251,279.025208 
	C477.811096,279.219116 477.556946,279.436768 477.180054,279.886963 
	C477.034271,280.092285 477.024384,280.024017 477.058594,280.028442 
	C476.812622,280.220551 476.555511,280.435516 476.178009,280.886932 
	C476.030945,281.091858 476.023285,281.023163 476.057678,281.026794 
	C475.812347,281.218384 475.557251,281.435242 475.181519,281.886902 
	C475.036346,282.092834 475.020752,282.024719 475.053772,282.036133 
	C474.770569,282.283356 474.452820,282.517090 473.846497,282.820740 
	C463.812134,291.591156 452.918243,298.517639 441.053955,303.950134 
	C425.730835,310.966370 409.687744,315.753571 393.261414,319.325684 
	C379.903809,322.230438 366.505981,324.870117 352.851410,326.081818 
	C349.264740,326.400085 345.722168,327.235718 341.640869,326.980469 
	C337.469574,328.119019 333.632172,327.180359 329.436157,327.656921 
	C328.847137,327.840546 328.683014,327.904053 328.256897,328.000366 
	C327.860504,328.164215 327.726044,328.295258 327.365295,328.593842 
	C325.733948,328.829468 324.328979,328.897522 322.505310,328.900879 
	C317.644104,328.183289 313.212341,328.390167 308.367126,329.018280 
	C307.548859,329.018524 307.149017,329.002808 306.449310,328.973389 
	C296.378296,330.171875 286.571838,329.223602 276.343384,329.223145 
	C275.442200,329.309540 274.982025,329.613190 274.248108,329.996399 
	C267.865082,322.713409 259.061340,324.797791 251.373901,324.319519 
	C237.104736,323.431702 222.892548,322.154358 208.731018,320.345612 
	C203.206650,319.640045 199.245911,321.514099 195.303818,325.143219 
	C176.577881,342.382294 157.356628,359.089111 136.069580,373.115692 
	C120.076385,383.653992 103.416260,393.109070 84.387589,397.330231 
	C83.900833,397.438232 83.432915,397.626434 82.942856,397.724213 
	C75.530075,399.203583 73.542488,397.002075 75.991920,389.850189 
	C83.271049,368.596436 91.766449,347.817902 100.446518,327.106384 
	C103.528648,319.752136 106.718666,312.433350 109.260750,304.847992 
	C110.563614,300.960358 109.314812,298.774017 105.766235,297.451508 
	C93.910950,293.033081 82.238976,288.176575 70.966675,282.426514 
	C68.368813,281.101349 66.100990,282.732117 63.323719,282.313843 
z"/>
<path fill="#184B78" opacity="1.000000" stroke="none" 
	d="
M62.928566,282.542175 
	C65.738396,278.917633 68.656815,278.540405 72.590752,280.659943 
	C83.444107,286.507477 94.823196,291.219910 106.435577,295.382507 
	C112.822525,297.671997 113.590462,299.531219 111.142090,305.951599 
	C100.643288,333.482788 88.208710,360.253540 78.808853,388.215363 
	C77.924744,390.845337 75.391273,394.446350 76.900780,395.982239 
	C78.747314,397.861084 82.455910,395.758575 85.262993,395.012970 
	C109.372849,388.609192 130.052658,375.673309 149.713760,360.872406 
	C165.826797,348.742523 181.112274,335.607330 195.902573,321.913025 
	C199.414108,318.661682 203.011215,317.533295 207.660919,318.182678 
	C226.802567,320.855988 246.066086,322.201630 265.366943,323.008087 
	C269.742828,323.190918 273.424866,323.975616 273.838837,329.726501 
	C273.760406,333.677704 271.989624,334.986176 268.287048,334.821930 
	C253.986221,334.187561 239.671234,333.889893 225.445465,332.066071 
	C219.637161,331.321381 213.819046,330.565826 207.981339,330.168945 
	C204.173920,329.910095 201.764893,333.051117 199.377335,335.267303 
	C188.928940,344.965637 177.828583,353.854279 166.835434,362.906769 
	C153.748322,373.683624 140.036972,383.392273 125.214813,391.607880 
	C109.968857,400.058411 94.155746,406.744446 76.645462,408.753082 
	C73.916069,409.066193 71.250664,409.789917 68.454346,409.750519 
	C63.288208,409.677704 60.471443,406.639435 62.049831,401.918365 
	C66.193787,389.523529 69.891403,376.978058 74.864624,364.856903 
	C79.456299,353.665710 83.234634,342.126404 88.152672,331.088654 
	C91.347519,323.918335 94.074677,316.572144 97.301277,309.443634 
	C98.795319,306.142853 97.768394,305.209778 95.013382,304.095428 
	C85.535706,300.261963 76.093399,296.349762 67.007942,291.610474 
	C63.244675,289.647430 61.503254,287.111298 62.928566,282.542175 
z"/>
<path fill="#C5F9FA" opacity="1.000000" stroke="none" 
	d="
M495.427582,247.833588 
	C495.604340,238.318253 496.599243,228.593964 495.024597,218.434570 
	C495.185364,217.780807 495.315796,217.569717 495.638489,217.677338 
	C496.642822,219.051224 497.140137,220.136673 497.057983,221.577682 
	C496.562958,230.256714 498.032257,239.030884 495.427582,247.833588 
z"/>
<path fill="#B3F3F4" opacity="1.000000" stroke="none" 
	d="
M7.647623,175.984589 
	C7.792638,184.979553 8.472142,194.152954 9.358315,203.615723 
	C7.615425,199.636642 7.064610,195.163483 7.029429,190.640350 
	C6.992030,185.832123 7.166152,181.022247 7.647623,175.984589 
z"/>
<path fill="#9EE4E5" opacity="1.000000" stroke="none" 
	d="
M241.349701,82.732376 
	C230.657730,82.943909 220.249695,82.940437 209.400772,82.562515 
	C219.336884,82.122421 229.713898,82.056786 240.553787,82.076248 
	C241.222321,82.280029 241.427979,82.398697 241.349701,82.732376 
z"/>
<path fill="#D4FBFB" opacity="1.000000" stroke="none" 
	d="
M276.103729,329.402802 
	C285.665619,328.964264 295.428894,328.922607 305.670776,328.920288 
	C305.871094,329.996124 305.045532,330.022003 304.201477,330.015472 
	C294.902679,329.943390 285.603882,329.871582 276.103729,329.402802 
z"/>
<path fill="#AFF0F4" opacity="1.000000" stroke="none" 
	d="
M485.916992,177.688705 
	C482.653595,175.152390 480.582306,171.508209 478.972473,167.179626 
	C482.544098,169.479111 484.360352,173.333511 485.916992,177.688705 
z"/>
<path fill="#95EAED" opacity="1.000000" stroke="none" 
	d="
M308.145233,329.385925 
	C312.352203,327.243713 316.882416,327.962433 321.741394,328.595734 
	C317.521851,329.393066 312.852478,328.355255 308.145233,329.385925 
z"/>
<path fill="#CAFDFE" opacity="1.000000" stroke="none" 
	d="
M495.909546,217.557495 
	C495.830780,217.996048 495.442596,217.993668 495.248749,217.992798 
	C494.629486,213.514481 494.204041,209.037033 493.847107,204.079544 
	C495.501068,207.968811 496.114044,212.487244 495.909546,217.557495 
z"/>
<path fill="#C5F9FA" opacity="1.000000" stroke="none" 
	d="
M493.936523,202.880249 
	C491.558655,199.766479 491.522491,195.611847 490.904541,191.179749 
	C493.303375,194.287689 493.425507,198.416046 493.936523,202.880249 
z"/>
<path fill="#BFF4F5" opacity="1.000000" stroke="none" 
	d="
M208.501678,82.112610 
	C208.959869,82.188057 208.928329,82.518860 208.911636,82.683258 
	C203.769424,82.892906 198.639481,83.523918 193.193359,82.449867 
	C197.925446,82.124527 202.984467,82.080849 208.501678,82.112610 
z"/>
<path fill="#B6EDEE" opacity="1.000000" stroke="none" 
	d="
M279.982361,84.630173 
	C275.602661,84.741890 270.899963,85.875015 266.285400,83.541901 
	C270.571838,84.805313 275.253754,83.463821 279.982361,84.630173 
z"/>
<path fill="#C3F0F4" opacity="1.000000" stroke="none" 
	d="
M329.467590,327.840271 
	C332.684174,326.505463 336.509583,327.133545 340.731628,326.915375 
	C337.601379,329.183685 333.672394,327.468597 329.467590,327.840271 
z"/>
<path fill="#A7EDED" opacity="1.000000" stroke="none" 
	d="
M15.724504,151.888550 
	C15.579956,154.335403 15.554726,157.158707 12.536472,158.876068 
	C13.566249,156.806839 13.562768,154.011826 15.724504,151.888550 
z"/>
<path fill="#CDF9FC" opacity="1.000000" stroke="none" 
	d="
M241.516602,82.969193 
	C241.065750,82.947380 241.035126,82.554749 241.025894,82.358047 
	C244.254761,82.181709 247.492859,82.202057 250.926376,82.613068 
	C248.070343,82.999489 245.018890,82.995247 241.516602,82.969193 
z"/>
<path fill="#BFF4F5" opacity="1.000000" stroke="none" 
	d="
M489.386322,263.958038 
	C488.750580,261.825317 489.290100,259.889709 491.484985,258.363220 
	C492.016968,260.461060 490.142853,261.879059 489.386322,263.958038 
z"/>
<path fill="#A7EDED" opacity="1.000000" stroke="none" 
	d="
M19.610775,145.024704 
	C20.124191,147.002914 19.920494,148.924576 17.237816,149.907928 
	C16.537834,147.796265 19.263880,147.149597 19.610775,145.024704 
z"/>
<path fill="#B1F0F2" opacity="1.000000" stroke="none" 
	d="
M32.661575,130.021942 
	C33.069019,132.229095 31.997627,133.621933 29.284651,133.973816 
	C30.064171,132.688461 31.215019,131.423386 32.661575,130.021942 
z"/>
<path fill="#B1F0F2" opacity="1.000000" stroke="none" 
	d="
M482.369446,273.978180 
	C481.886261,272.195465 482.579010,270.819855 484.756622,270.073669 
	C485.313232,271.945435 483.649872,272.689819 482.369446,273.978180 
z"/>
<path fill="#A1EBEE" opacity="1.000000" stroke="none" 
	d="
M465.992615,152.619019 
	C464.821899,153.099030 463.774200,152.787109 463.099976,151.202026 
	C464.268036,150.773239 465.136383,151.422699 465.992615,152.619019 
z"/>
<path fill="#A1EBEE" opacity="1.000000" stroke="none" 
	d="
M460.993134,148.612244 
	C459.908417,149.122147 458.893036,148.833710 458.041321,147.470200 
	C459.258636,146.562683 460.058655,147.445831 460.993134,148.612244 
z"/>
<path fill="#BFF4F5" opacity="1.000000" stroke="none" 
	d="
M487.245483,267.169434 
	C486.871826,266.043152 487.126495,264.874573 488.731506,264.085236 
	C489.283173,265.376007 488.468903,266.206451 487.245483,267.169434 
z"/>
<path fill="#B1F0F2" opacity="1.000000" stroke="none" 
	d="
M26.619164,136.018478 
	C27.210705,137.226700 26.703232,138.164200 25.240475,138.902802 
	C24.776321,137.752441 25.415033,136.875992 26.619164,136.018478 
z"/>
<path fill="#B1F0F2" opacity="1.000000" stroke="none" 
	d="
M24.735794,139.017105 
	C24.583872,139.503632 24.167568,140.102982 23.486389,140.803940 
	C23.638147,140.313675 24.054779,139.721786 24.735794,139.017105 
z"/>
<path fill="#A7EDED" opacity="1.000000" stroke="none" 
	d="
M46.677483,119.943451 
	C46.516117,120.259186 46.027531,120.626663 45.224121,120.972282 
	C45.066452,120.144516 45.630028,119.951706 46.677483,119.943451 
z"/>
<path fill="#B1F0F2" opacity="1.000000" stroke="none" 
	d="
M39.657753,124.984352 
	C39.481716,125.259384 38.993671,125.581284 38.207439,125.940521 
	C38.132572,125.274590 38.665142,125.040588 39.657753,124.984352 
z"/>
<path fill="#C5F9FA" opacity="1.000000" stroke="none" 
	d="
M478.359314,278.978943 
	C478.218811,278.511902 478.385376,277.942047 478.818298,277.198242 
	C478.945221,277.641571 478.805817,278.258820 478.359314,278.978943 
z"/>
<path fill="#B1F0F2" opacity="1.000000" stroke="none" 
	d="
M37.718407,125.966904 
	C37.806038,126.204147 37.613930,126.504562 37.163761,126.899673 
	C37.083359,126.672935 37.261017,126.351501 37.718407,125.966904 
z"/>
<path fill="#C3F0F4" opacity="1.000000" stroke="none" 
	d="
M327.360077,328.775085 
	C327.365479,328.636780 327.590485,328.509491 327.904480,328.206360 
	C327.981445,328.353210 327.843536,328.605072 327.360077,328.775085 
z"/>
<path fill="#B1F0F2" opacity="1.000000" stroke="none" 
	d="
M486.355408,268.987854 
	C486.158691,268.720367 486.279907,268.353119 486.647461,267.810425 
	C486.820312,268.052704 486.746826,268.470398 486.355408,268.987854 
z"/>
<path fill="#B1F0F2" opacity="1.000000" stroke="none" 
	d="
M485.288300,270.033447 
	C485.193024,269.783417 485.373871,269.472290 485.823730,269.092224 
	C485.916656,269.339661 485.740509,269.656036 485.288300,270.033447 
z"/>
<path fill="#B1F0F2" opacity="1.000000" stroke="none" 
	d="
M481.230133,275.092407 
	C481.149139,274.866638 481.346252,274.538483 481.814392,274.110229 
	C481.893005,274.336731 481.700623,274.663422 481.230133,275.092407 
z"/>
<path fill="#C5F9FA" opacity="1.000000" stroke="none" 
	d="
M477.301758,280.025299 
	C477.186249,279.750488 477.338226,279.408691 477.790955,279.049744 
	C477.917542,279.341187 477.743408,279.649750 477.301758,280.025299 
z"/>
<path fill="#C5F9FA" opacity="1.000000" stroke="none" 
	d="
M476.298828,281.025055 
	C476.185791,280.751251 476.340607,280.410645 476.794098,280.051453 
	C476.917419,280.341339 476.742035,280.649780 476.298828,281.025055 
z"/>
<path fill="#C5F9FA" opacity="1.000000" stroke="none" 
	d="
M475.303314,282.024506 
	C475.189484,281.753937 475.342651,281.415070 475.793945,281.053345 
	C475.918152,281.339020 475.744232,281.647583 475.303314,282.024506 
z"/>
<path fill="#C5F9FA" opacity="1.000000" stroke="none" 
	d="
M473.901611,282.942993 
	C473.853760,282.590546 474.147980,282.288208 474.764496,282.016724 
	C474.805756,282.362732 474.524689,282.677917 473.901611,282.942993 
z"/>
<path fill="#A7EDED" opacity="1.000000" stroke="none" 
	d="
M44.705227,120.991608 
	C44.746124,121.204033 44.493706,121.494164 43.974319,121.915779 
	C43.942207,121.721275 44.177059,121.395287 44.705227,120.991608 
z"/>
<path fill="#A7EDED" opacity="1.000000" stroke="none" 
	d="
M43.022770,122.064560 
	C43.067894,122.387062 42.782970,122.648308 42.206524,122.935913 
	C42.174244,122.642616 42.433483,122.322960 43.022770,122.064560 
z"/>
<path fill="#A7EDED" opacity="1.000000" stroke="none" 
	d="
M41.699692,122.981140 
	C41.770714,123.207077 41.558559,123.504509 41.085537,123.915489 
	C41.021954,123.703568 41.219234,123.378098 41.699692,122.981140 
z"/>
<path fill="#B1F0F2" opacity="1.000000" stroke="none" 
	d="
M36.730591,126.985565 
	C36.794212,127.192345 36.582073,127.470032 36.140476,127.879730 
	C36.092293,127.693321 36.273560,127.374893 36.730591,126.985565 
z"/>
<path fill="#B1F0F2" opacity="1.000000" stroke="none" 
	d="
M35.729172,127.989761 
	C35.763081,128.186630 35.510082,128.459167 35.013145,128.878632 
	C34.993561,128.705505 35.217915,128.385468 35.729172,127.989761 
z"/>
<path fill="#B1F0F2" opacity="1.000000" stroke="none" 
	d="
M33.894035,129.073792 
	C33.940632,129.369385 33.676651,129.613617 33.146873,129.921600 
	C33.115208,129.664368 33.349331,129.343384 33.894035,129.073792 
z"/>
<path fill="#B1F0F2" opacity="1.000000" stroke="none" 
	d="
M28.701912,133.968658 
	C28.805140,134.228455 28.634394,134.547165 28.186247,134.917938 
	C28.081877,134.655853 28.254908,134.341736 28.701912,133.968658 
z"/>
<path fill="#B1F0F2" opacity="1.000000" stroke="none" 
	d="
M27.692091,134.967957 
	C27.805479,135.239639 27.646706,135.568924 27.199104,135.930603 
	C27.080160,135.650513 27.250046,135.338043 27.692091,134.967957 
z"/>
<path fill="#AFF0F4" opacity="1.000000" stroke="none" 
	d="
M477.980713,165.732391 
	C477.896027,165.705566 477.693665,165.483658 477.273193,165.162354 
	C477.455902,165.029190 477.725250,165.187286 477.980713,165.732391 
z"/>
<path fill="#A1EBEE" opacity="1.000000" stroke="none" 
	d="
M469.903015,156.851990 
	C469.617676,156.895172 469.398468,156.640289 469.096313,156.145264 
	C469.332001,156.121399 469.650574,156.337646 469.903015,156.851990 
z"/>
<path fill="#A1EBEE" opacity="1.000000" stroke="none" 
	d="
M469.028564,155.718933 
	C468.806396,155.795471 468.520050,155.594788 468.120544,155.153656 
	C468.326385,155.089386 468.645386,155.265549 469.028564,155.718933 
z"/>
<path fill="#A1EBEE" opacity="1.000000" stroke="none" 
	d="
M468.033569,154.707062 
	C467.795319,154.796509 467.498444,154.607925 467.109253,154.165543 
	C467.336273,154.084167 467.655640,154.256577 468.033569,154.707062 
z"/>
<path fill="#A1EBEE" opacity="1.000000" stroke="none" 
	d="
M467.031403,153.704773 
	C466.792114,153.794785 466.495636,153.607285 466.108978,153.165497 
	C466.337250,153.083221 466.655731,153.255249 467.031403,153.704773 
z"/>
<path fill="#A1EBEE" opacity="1.000000" stroke="none" 
	d="
M463.039368,150.722824 
	C462.824677,150.794861 462.537109,150.589096 462.125397,150.145508 
	C462.322998,150.086777 462.644745,150.265900 463.039368,150.722824 
z"/>
<path fill="#A7EDED" opacity="1.000000" stroke="none" 
	d="
M16.671230,149.993332 
	C16.843462,150.239792 16.704544,150.582748 16.349079,151.109299 
	C16.208382,150.891876 16.284229,150.490845 16.671230,149.993332 
z"/>
<path fill="#A1EBEE" opacity="1.000000" stroke="none" 
	d="
M462.028564,149.719696 
	C461.809692,149.793701 461.525787,149.590317 461.123596,149.149490 
	C461.324707,149.088806 461.644135,149.265564 462.028564,149.719696 
z"/>
<path fill="#A7EDED" opacity="1.000000" stroke="none" 
	d="
M20.734718,143.937256 
	C20.809727,144.152634 20.608406,144.455093 20.159405,144.875931 
	C20.093945,144.670990 20.276167,144.347656 20.734718,143.937256 
z"/>
<path fill="#144C79" opacity="1.000000" stroke="none" 
	d="
M176.577667,241.678284 
	C153.659470,236.447968 136.945862,208.237122 144.208984,187.418762 
	C145.677856,183.208496 147.576263,179.056961 149.892288,175.253220 
	C154.099030,168.344208 160.868149,166.042572 168.464951,167.331009 
	C198.731781,172.464325 209.273209,200.443268 205.312775,220.723694 
	C202.553375,234.853912 191.429672,242.864075 176.577667,241.678284 
z"/>
<path fill="#144C79" opacity="1.000000" stroke="none" 
	d="
M252.500961,228.654694 
	C237.723312,219.733368 231.729538,200.510376 238.676102,185.241898 
	C245.397964,170.467255 264.871613,166.957993 276.058929,178.636093 
	C284.443115,187.388138 288.165192,198.204315 287.856140,210.090622 
	C287.472137,224.862000 276.586182,233.453705 261.952209,231.345413 
	C258.802734,230.891678 255.736435,230.170258 252.500961,228.654694 
z"/>
<path fill="#144C79" opacity="1.000000" stroke="none" 
	d="
M333.924957,164.452362 
	C348.929260,166.662781 354.757263,177.506134 358.820709,189.782715 
	C360.929382,196.153549 361.583649,202.828949 359.708374,209.466461 
	C355.909241,222.913437 341.750732,228.680893 327.261108,222.734985 
	C321.178406,220.238907 316.583862,216.059601 313.372162,210.351242 
	C308.841217,202.298019 307.659210,193.575516 309.528717,184.713806 
	C311.998810,173.004974 317.668915,167.553421 333.924957,164.452362 
z"/>
<path fill="#5CDEE5" opacity="1.000000" stroke="none" 
	d="
M193.670959,220.277557 
	C189.029648,230.377029 180.440552,233.419434 171.441055,227.586838 
	C160.072083,220.218613 154.076736,209.418015 154.151108,195.689529 
	C154.182236,189.941742 157.605011,185.281677 160.571960,180.783096 
	C162.639130,177.648788 166.609344,178.574677 169.869583,179.408234 
	C185.327698,183.360397 196.196304,199.072510 194.530884,214.964737 
	C194.357590,216.618546 194.054688,218.258774 193.670959,220.277557 
z"/>
<path fill="#5DDDE5" opacity="1.000000" stroke="none" 
	d="
M248.238373,192.809845 
	C249.621429,185.969864 255.056717,184.344894 260.130280,183.206619 
	C264.817291,182.155075 267.733185,185.982025 270.086487,189.442764 
	C274.401276,195.787979 276.832153,202.803680 276.163727,210.602753 
	C275.624481,216.894272 272.391937,219.825455 266.118439,219.991684 
	C257.044617,220.232117 250.284714,214.667694 248.255661,205.116226 
	C247.420990,201.187149 247.244949,197.195435 248.238373,192.809845 
z"/>
<path fill="#5DDDE5" opacity="1.000000" stroke="none" 
	d="
M326.848572,178.737396 
	C335.051880,175.033493 337.972717,175.745209 343.019653,182.891113 
	C347.360809,189.037720 349.512573,195.963058 349.012054,203.493576 
	C348.560425,210.288391 345.115936,213.208008 338.297211,213.156158 
	C326.371094,213.065460 318.207916,201.757721 320.577728,188.459778 
	C321.275208,184.545975 321.951508,180.473221 326.848572,178.737396 
z"/>
</svg>